<svg width="68" height="18" viewBox="0 0 68 18" fill="none" xmlns="http://www.w3.org/2000/svg">
<path d="M6.49499 17.973C8.81599 17.973 10.829 16.742 11.847 14.895L9.19498 13.379C8.72098 14.349 7.70298 14.942 6.47198 14.942C4.64798 14.942 3.29798 13.592 3.29798 11.722C3.29798 9.82699 4.64798 8.47699 6.47198 8.47699C7.67898 8.47699 8.69798 9.09299 9.17098 10.064L11.8 8.52399C10.829 6.70099 8.81599 5.46899 6.49499 5.46899C2.89599 5.46899 0.242981 8.19299 0.242981 11.721C0.242981 15.25 2.89599 17.973 6.49499 17.973ZM22.277 5.79999V7.19799C21.424 6.13199 20.146 5.46899 18.417 5.46899C15.267 5.46899 12.662 8.19299 12.662 11.721C12.662 15.25 15.267 17.973 18.417 17.973C20.146 17.973 21.424 17.31 22.277 16.244V17.642H25.332V5.79999H22.277ZM18.985 15.06C17.114 15.06 15.717 13.71 15.717 11.721C15.717 9.73199 17.114 8.38199 18.985 8.38199C20.88 8.38199 22.277 9.73199 22.277 11.722C22.277 13.71 20.88 15.06 18.985 15.06ZM34.875 8.73699V5.80099H32.199V2.48499L29.144 3.40899V5.80099H27.084V8.73699H29.144V13.663C29.144 16.86 30.589 18.115 34.875 17.642V14.87C33.123 14.965 32.199 14.941 32.199 13.662V8.73599H34.875V8.73699ZM38.545 4.37999C39.586 4.37999 40.439 3.52699 40.439 2.50999C40.439 1.48999 39.586 0.61499 38.545 0.61499C37.526 0.61499 36.674 1.49099 36.674 2.50899C36.6789 3.00368 36.8776 3.4767 37.2275 3.82652C37.5773 4.17633 38.0503 4.37504 38.545 4.37999ZM37.029 17.642H40.084V5.79999H37.029V17.64V17.642ZM48.516 17.973C51.997 17.973 54.792 15.25 54.792 11.721C54.792 8.19299 51.997 5.46899 48.516 5.46899C45.035 5.46899 42.264 8.19299 42.264 11.721C42.264 15.25 45.035 17.973 48.516 17.973ZM48.516 14.989C46.716 14.989 45.319 13.639 45.319 11.721C45.319 9.80299 46.716 8.45299 48.516 8.45299C50.34 8.45299 51.737 9.80299 51.737 11.721C51.737 13.64 50.34 14.989 48.516 14.989ZM63.524 5.46999C61.938 5.46999 60.706 6.06099 59.996 7.12699V5.80099H56.941V17.641H59.996V11.248C59.996 9.18799 61.109 8.31099 62.601 8.31099C63.974 8.31099 64.945 9.13999 64.945 10.751V17.641H68V10.371C68 7.22099 66.034 5.46899 63.524 5.46899V5.46999Z" fill="#2E59F3"/>
</svg>
