<svg width="58" height="17" viewBox="0 0 58 17" fill="none" xmlns="http://www.w3.org/2000/svg">
<path d="M5.26698 16.642H8.98498L12.087 5.69997L15.213 16.64H18.931L23.573 0.0639648H20.139L16.966 12.354L13.485 0.0639648H10.69L7.23298 12.354L4.05898 0.0639648H0.625977L5.26698 16.641V16.642ZM29.551 16.973C33.032 16.973 35.827 14.25 35.827 10.721C35.827 7.19297 33.033 4.46896 29.551 4.46896C26.071 4.46896 23.299 7.19297 23.299 10.721C23.299 14.25 26.07 16.973 29.551 16.973ZM29.551 13.989C27.751 13.989 26.354 12.639 26.354 10.721C26.354 8.80297 27.752 7.45296 29.551 7.45296C31.375 7.45296 32.772 8.80297 32.772 10.721C32.772 12.639 31.375 13.989 29.552 13.989H29.551ZM41.031 6.83696V4.80096H37.976V16.641H41.031V10.981C41.031 8.49497 43.044 7.78497 44.631 7.97397V4.56396C43.139 4.56396 41.647 5.22696 41.031 6.83696ZM57.334 16.642L52.432 10.65L57.192 4.79996H53.545L49.472 10.01V0.0639648H46.417V16.642H49.472V11.266L53.782 16.642H57.334Z" fill="#1F2937"/>
</svg>
